<svg width="192" height="56" viewBox="0 0 192 56" fill="none" xmlns="http://www.w3.org/2000/svg">
<path d="M33.8 35.5V22.38H35.8L38.32 29.38C38.48 29.8333 38.6333 30.2933 38.78 30.76C38.94 31.2133 39.1 31.6667 39.26 32.12H39.34C39.5 31.6667 39.6467 31.2133 39.78 30.76C39.9267 30.2933 40.08 29.8333 40.24 29.38L42.72 22.38H44.74V35.5H43.18V28.28C43.18 27.6933 43.2067 27.0467 43.26 26.34C43.3133 25.62 43.36 24.9733 43.4 24.4H43.32L42.28 27.38L39.8 34.18H38.7L36.22 27.38L35.18 24.4H35.1C35.14 24.9733 35.18 25.62 35.22 26.34C35.2733 27.0467 35.3 27.6933 35.3 28.28V35.5H33.8ZM51.9513 35.74C51.1646 35.74 50.4246 35.54 49.7313 35.14C49.0513 34.74 48.4979 34.16 48.0713 33.4C47.6579 32.64 47.4513 31.7267 47.4513 30.66C47.4513 29.5667 47.6579 28.64 48.0713 27.88C48.4979 27.12 49.0513 26.54 49.7313 26.14C50.4246 25.74 51.1646 25.54 51.9513 25.54C52.7513 25.54 53.4913 25.74 54.1713 26.14C54.8513 26.54 55.3979 27.12 55.8113 27.88C56.2379 28.64 56.4513 29.5667 56.4513 30.66C56.4513 31.7267 56.2379 32.64 55.8113 33.4C55.3979 34.16 54.8513 34.74 54.1713 35.14C53.4913 35.54 52.7513 35.74 51.9513 35.74ZM51.9513 34.38C52.7913 34.38 53.4646 34.04 53.9713 33.36C54.4913 32.6667 54.7513 31.7667 54.7513 30.66C54.7513 29.54 54.4913 28.6333 53.9713 27.94C53.4646 27.2467 52.7913 26.9 51.9513 26.9C51.1246 26.9 50.4513 27.2467 49.9313 27.94C49.4113 28.6333 49.1513 29.54 49.1513 30.66C49.1513 31.7667 49.4113 32.6667 49.9313 33.36C50.4513 34.04 51.1246 34.38 51.9513 34.38ZM59.0111 35.5V25.78H60.3711L60.5111 27.54H60.5711C60.9044 26.9267 61.3111 26.44 61.7911 26.08C62.2711 25.72 62.7844 25.54 63.3311 25.54C63.7178 25.54 64.0644 25.6067 64.3711 25.74L64.0511 27.18C63.8911 27.1267 63.7444 27.0867 63.6111 27.06C63.4778 27.0333 63.3111 27.02 63.1111 27.02C62.6978 27.02 62.2644 27.1867 61.8111 27.52C61.3711 27.8533 60.9844 28.4333 60.6511 29.26V35.5H59.0111ZM69.6894 35.74C68.8227 35.74 68.036 35.54 67.3294 35.14C66.6227 34.7267 66.0627 34.14 65.6494 33.38C65.236 32.62 65.0294 31.7133 65.0294 30.66C65.0294 29.5933 65.236 28.68 65.6494 27.92C66.076 27.16 66.6227 26.5733 67.2894 26.16C67.956 25.7467 68.656 25.54 69.3894 25.54C70.6294 25.54 71.5827 25.9533 72.2494 26.78C72.9294 27.6067 73.2694 28.7133 73.2694 30.1C73.2694 30.2733 73.2627 30.4467 73.2494 30.62C73.2494 30.78 73.236 30.92 73.2094 31.04H66.6494C66.716 32.0667 67.036 32.8867 67.6094 33.5C68.196 34.1133 68.956 34.42 69.8894 34.42C70.356 34.42 70.7827 34.3533 71.1694 34.22C71.5694 34.0733 71.9494 33.8867 72.3094 33.66L72.8894 34.74C72.476 35.0067 72.0027 35.24 71.4694 35.44C70.9494 35.64 70.356 35.74 69.6894 35.74ZM66.6294 29.86H71.8294C71.8294 28.8733 71.616 28.1267 71.1894 27.62C70.776 27.1 70.1894 26.84 69.4294 26.84C68.7494 26.84 68.136 27.1067 67.5894 27.64C67.056 28.16 66.736 28.9 66.6294 29.86ZM82.9952 35.74C81.7818 35.74 80.8085 35.3 80.0752 34.42C79.3418 33.5267 78.9752 32.2733 78.9752 30.66C78.9752 29.6067 79.1685 28.7 79.5552 27.94C79.9552 27.1667 80.4752 26.5733 81.1152 26.16C81.7685 25.7467 82.4618 25.54 83.1952 25.54C83.7552 25.54 84.2418 25.64 84.6552 25.84C85.0685 26.04 85.4885 26.3133 85.9152 26.66L85.8352 25V21.26H87.4952V35.5H86.1352L85.9952 34.36H85.9352C85.5618 34.7333 85.1218 35.06 84.6152 35.34C84.1085 35.6067 83.5685 35.74 82.9952 35.74ZM83.3552 34.36C84.2085 34.36 85.0352 33.9133 85.8352 33.02V27.94C85.4218 27.5667 85.0218 27.3067 84.6352 27.16C84.2618 27 83.8752 26.92 83.4752 26.92C82.9552 26.92 82.4818 27.08 82.0552 27.4C81.6418 27.7067 81.3085 28.14 81.0552 28.7C80.8018 29.2467 80.6752 29.8933 80.6752 30.64C80.6752 31.8 80.9085 32.7133 81.3752 33.38C81.8418 34.0333 82.5018 34.36 83.3552 34.36ZM94.7089 35.74C93.8422 35.74 93.0556 35.54 92.3489 35.14C91.6422 34.7267 91.0822 34.14 90.6689 33.38C90.2556 32.62 90.0489 31.7133 90.0489 30.66C90.0489 29.5933 90.2556 28.68 90.6689 27.92C91.0956 27.16 91.6422 26.5733 92.3089 26.16C92.9756 25.7467 93.6756 25.54 94.4089 25.54C95.6489 25.54 96.6022 25.9533 97.2689 26.78C97.9489 27.6067 98.2889 28.7133 98.2889 30.1C98.2889 30.2733 98.2822 30.4467 98.2689 30.62C98.2689 30.78 98.2556 30.92 98.2289 31.04H91.6689C91.7356 32.0667 92.0556 32.8867 92.6289 33.5C93.2156 34.1133 93.9756 34.42 94.9089 34.42C95.3756 34.42 95.8022 34.3533 96.1889 34.22C96.5889 34.0733 96.9689 33.8867 97.3289 33.66L97.9089 34.74C97.4956 35.0067 97.0222 35.24 96.4889 35.44C95.9689 35.64 95.3756 35.74 94.7089 35.74ZM91.6489 29.86H96.8489C96.8489 28.8733 96.6356 28.1267 96.2089 27.62C95.7956 27.1 95.2089 26.84 94.4489 26.84C93.7689 26.84 93.1556 27.1067 92.6089 27.64C92.0756 28.16 91.7556 28.9 91.6489 29.86ZM103.555 35.74C102.515 35.74 101.789 35.44 101.375 34.84C100.975 34.24 100.775 33.46 100.775 32.5V27.12H99.3355V25.88L100.855 25.78L101.055 23.06H102.435V25.78H105.055V27.12H102.435V32.52C102.435 33.12 102.542 33.5867 102.755 33.92C102.982 34.24 103.375 34.4 103.935 34.4C104.109 34.4 104.295 34.3733 104.495 34.32C104.695 34.2533 104.875 34.1933 105.035 34.14L105.355 35.38C105.089 35.4733 104.795 35.5533 104.475 35.62C104.169 35.7 103.862 35.74 103.555 35.74ZM109.064 35.74C108.25 35.74 107.57 35.5 107.024 35.02C106.49 34.5267 106.224 33.8467 106.224 32.98C106.224 31.9133 106.697 31.1 107.644 30.54C108.604 29.9667 110.117 29.5667 112.184 29.34C112.184 28.9267 112.124 28.5333 112.004 28.16C111.897 27.7867 111.697 27.4867 111.404 27.26C111.124 27.02 110.717 26.9 110.184 26.9C109.624 26.9 109.097 27.0067 108.604 27.22C108.11 27.4333 107.67 27.6733 107.284 27.94L106.644 26.8C107.097 26.5067 107.65 26.2267 108.304 25.96C108.97 25.68 109.69 25.54 110.464 25.54C111.65 25.54 112.51 25.9067 113.044 26.64C113.577 27.36 113.844 28.3267 113.844 29.54V35.5H112.484L112.344 34.34H112.284C111.83 34.7133 111.33 35.04 110.784 35.32C110.25 35.6 109.677 35.74 109.064 35.74ZM109.544 34.42C110.01 34.42 110.45 34.3067 110.864 34.08C111.277 33.8533 111.717 33.5333 112.184 33.12V30.42C110.57 30.62 109.437 30.92 108.784 31.32C108.144 31.72 107.824 32.2333 107.824 32.86C107.824 33.4067 107.99 33.8067 108.324 34.06C108.657 34.3 109.064 34.42 109.544 34.42ZM116.902 35.5V25.78H118.542V35.5H116.902ZM117.742 23.78C117.422 23.78 117.155 23.6867 116.942 23.5C116.742 23.3 116.642 23.0333 116.642 22.7C116.642 22.38 116.742 22.12 116.942 21.92C117.155 21.72 117.422 21.62 117.742 21.62C118.062 21.62 118.322 21.72 118.522 21.92C118.735 22.12 118.842 22.38 118.842 22.7C118.842 23.0333 118.735 23.3 118.522 23.5C118.322 23.6867 118.062 23.78 117.742 23.78ZM123.564 35.74C122.95 35.74 122.504 35.5533 122.224 35.18C121.957 34.7933 121.824 34.2467 121.824 33.54V21.26H123.464V33.66C123.464 33.9133 123.51 34.1 123.604 34.22C123.697 34.3267 123.804 34.38 123.924 34.38C123.977 34.38 124.024 34.38 124.064 34.38C124.117 34.3667 124.19 34.3533 124.284 34.34L124.504 35.58C124.397 35.6333 124.27 35.6733 124.124 35.7C123.977 35.7267 123.79 35.74 123.564 35.74ZM129.461 35.74C128.768 35.74 128.108 35.6133 127.481 35.36C126.855 35.0933 126.308 34.7733 125.841 34.4L126.661 33.3C127.088 33.6333 127.528 33.9133 127.981 34.14C128.435 34.3533 128.948 34.46 129.521 34.46C130.161 34.46 130.641 34.3133 130.961 34.02C131.281 33.7133 131.441 33.3533 131.441 32.94C131.441 32.6067 131.328 32.3267 131.101 32.1C130.888 31.8733 130.608 31.6867 130.261 31.54C129.928 31.38 129.581 31.2333 129.221 31.1C128.768 30.9267 128.321 30.7333 127.881 30.52C127.441 30.2933 127.081 30.0067 126.801 29.66C126.521 29.3 126.381 28.8467 126.381 28.3C126.381 27.5133 126.675 26.86 127.261 26.34C127.861 25.8067 128.688 25.54 129.741 25.54C130.341 25.54 130.901 25.6467 131.421 25.86C131.941 26.0733 132.388 26.3333 132.761 26.64L131.961 27.68C131.628 27.4267 131.281 27.22 130.921 27.06C130.561 26.9 130.168 26.82 129.741 26.82C129.128 26.82 128.675 26.96 128.381 27.24C128.101 27.52 127.961 27.8467 127.961 28.22C127.961 28.5267 128.061 28.78 128.261 28.98C128.461 29.1667 128.721 29.3333 129.041 29.48C129.361 29.6133 129.701 29.7533 130.061 29.9C130.528 30.0733 130.988 30.2733 131.441 30.5C131.895 30.7133 132.268 31.0067 132.561 31.38C132.868 31.74 133.021 32.2267 133.021 32.84C133.021 33.36 132.881 33.84 132.601 34.28C132.335 34.72 131.935 35.0733 131.401 35.34C130.881 35.6067 130.235 35.74 129.461 35.74Z" fill="#ABFFCE"/>
<path d="M148.506 33.8332C148.177 34.0429 147.843 34.0549 147.506 33.869C147.169 33.6838 147 33.3975 147 33.0103V22.99C147 22.6028 147.169 22.3162 147.506 22.1303C147.843 21.9451 148.177 21.9573 148.506 22.1671L156.556 27.1772C156.852 27.3708 157 27.6452 157 28.0001C157 28.3551 156.852 28.6294 156.556 28.8231L148.506 33.8332Z" fill="#ABFFCE"/>
<rect x="0.5" y="0.5" width="191" height="55" rx="3.5" stroke="#ABFFCE"/>
</svg>
