<svg width="384" height="208" viewBox="0 0 384 208" fill="none" xmlns="http://www.w3.org/2000/svg">
<g clip-path="url(#clip0_1_3836)">
<mask id="mask0_1_3836" style="mask-type:alpha" maskUnits="userSpaceOnUse" x="0" y="0" width="384" height="208">
<rect width="384" height="208" fill="#D9D9D9"/>
</mask>
<g mask="url(#mask0_1_3836)">
<rect width="384" height="208" fill="#2DA24A"/>
</g>
<g clip-path="url(#clip1_1_3836)">
<path d="M119.218 134.258L117.29 148H102L113.621 61H134.008L145.952 148H129.23L127.811 134.258H119.218ZM123.814 89.8134L120.552 118.866H126.453L123.814 91.5256" fill="white"/>
<path d="M148.381 86.0574L154.599 111.373H159.492V61H154.191V87.2726L149.094 61H143.386V111.373H148.381V86.0574Z" fill="white"/>
<path d="M162.754 61H176.006V111.373H162.754V61Z" fill="white"/>
<path d="M213.111 86.0574L240.022 92.1332V111.373H179.472V98.5127H217.8L179.472 89.5004V80.9945L216.984 73.0958H179.675V61H240.43V81.3996L213.111 86.0574Z" fill="white"/>
<path d="M248.15 102.259L247.334 111.373H242.311L247 61H253.477L258.167 111.373H253.212L252.397 102.259H248.15ZM250.146 75.9313L248.311 96.1836H251.981L250.146 75.9313" fill="white"/>
<path d="M281 101.449H271.826V61H260.409V111.373H281V101.449Z" fill="white"/>
<path d="M158.573 114.271C166.763 114.271 168.259 118.793 168.259 121.253C168.259 122.667 168.259 127.076 168.259 129.104C168.259 131.305 167.548 132.91 166.312 134.207C165.077 135.503 162.926 136.486 161.049 136.486C159.173 136.486 157.045 136.486 157.045 136.486V148H148.075V114.271C148.075 114.271 154.827 114.271 158.573 114.271ZM157.045 120.891V129.6C157.045 129.6 159.053 130.06 159.929 128.9C160.691 127.891 160.603 126.796 160.603 124.973C160.603 123.15 160.596 122.24 159.577 121.43C158.558 120.62 157.045 120.891 157.045 120.891V120.891Z" fill="white"/>
<path d="M187.422 140.941H179.471V114.271H170.501V148H187.422V140.941Z" fill="white"/>
<path d="M200.471 125.55L202.305 137.093H198.636L200.471 125.55ZM195.374 114.271L188.646 148H197.412L198.228 143.777H202.713L203.529 148H212.295L205.567 114.271H195.374Z" fill="white"/>
<path d="M222.081 132.638L231.459 148H238.595V114.271H230.44V130.41L221.877 114.271H214.13V148H222.081V132.638Z" fill="white"/>
<path d="M258.234 141.346H249.808V133.853H258.234V127.575H249.808V120.891H258.234V114.271H240.837V148H258.234V141.346Z" fill="white"/>
<path d="M266.117 148H275.088V120.689H281V114.271H260.409V120.689H266.117V148Z" fill="white"/>
</g>
<rect width="384" height="208" fill="#232323" fill-opacity="0.5"/>
</g>
<defs>
<clipPath id="clip0_1_3836">
<rect width="384" height="208" fill="white"/>
</clipPath>
<clipPath id="clip1_1_3836">
<rect width="179" height="87" fill="white" transform="translate(102 61)"/>
</clipPath>
</defs>
</svg>
