<svg width="133" height="28" viewBox="0 0 133 28" fill="none" xmlns="http://www.w3.org/2000/svg">
<rect width="133" height="28" rx="4" fill="#DE8B0F"/>
<path d="M9.44 20V9.504H10.816L14.608 16.096L15.744 18.272H15.808C15.776 17.7387 15.7387 17.1893 15.696 16.624C15.664 16.048 15.648 15.4827 15.648 14.928V9.504H16.912V20H15.536L11.728 13.392L10.592 11.232H10.528C10.5707 11.7547 10.608 12.2933 10.64 12.848C10.6827 13.4027 10.704 13.9573 10.704 14.512V20H9.44ZM22.8234 20.192C22.13 20.192 21.5007 20.032 20.9354 19.712C20.37 19.3813 19.922 18.912 19.5914 18.304C19.2607 17.696 19.0954 16.9707 19.0954 16.128C19.0954 15.2747 19.2607 14.544 19.5914 13.936C19.9327 13.328 20.37 12.8587 20.9034 12.528C21.4367 12.1973 21.9967 12.032 22.5834 12.032C23.5754 12.032 24.338 12.3627 24.8714 13.024C25.4154 13.6853 25.6874 14.5707 25.6874 15.68C25.6874 15.8187 25.682 15.9573 25.6714 16.096C25.6714 16.224 25.6607 16.336 25.6394 16.432H20.3914C20.4447 17.2533 20.7007 17.9093 21.1594 18.4C21.6287 18.8907 22.2367 19.136 22.9834 19.136C23.3567 19.136 23.698 19.0827 24.0074 18.976C24.3274 18.8587 24.6314 18.7093 24.9194 18.528L25.3834 19.392C25.0527 19.6053 24.674 19.792 24.2474 19.952C23.8314 20.112 23.3567 20.192 22.8234 20.192ZM20.3754 15.488H24.5354C24.5354 14.6987 24.3647 14.1013 24.0234 13.696C23.6927 13.28 23.2234 13.072 22.6154 13.072C22.0714 13.072 21.5807 13.2853 21.1434 13.712C20.7167 14.128 20.4607 14.72 20.3754 15.488ZM28.919 20L26.759 12.224H28.103L29.255 16.72C29.3403 17.0827 29.4203 17.4453 29.495 17.808C29.5697 18.16 29.6443 18.5173 29.719 18.88H29.783C29.8683 18.5173 29.9537 18.16 30.039 17.808C30.1243 17.4453 30.215 17.0827 30.311 16.72L31.511 12.224H32.791L34.007 16.72C34.103 17.0827 34.1937 17.4453 34.279 17.808C34.375 18.16 34.4657 18.5173 34.551 18.88H34.615C34.7003 18.5173 34.7803 18.16 34.855 17.808C34.9403 17.4453 35.0203 17.0827 35.095 16.72L36.231 12.224H37.479L35.399 20H33.799L32.679 15.824C32.583 15.4507 32.4923 15.0827 32.407 14.72C32.3323 14.3573 32.247 13.9787 32.151 13.584H32.087C32.0017 13.9787 31.9163 14.3627 31.831 14.736C31.7457 15.0987 31.6497 15.4667 31.543 15.84L30.455 20H28.919ZM45.3985 20.192C44.7692 20.192 44.1772 20.032 43.6225 19.712C43.0785 19.392 42.6358 18.928 42.2945 18.32C41.9638 17.712 41.7985 16.9813 41.7985 16.128C41.7985 15.2533 41.9638 14.512 42.2945 13.904C42.6358 13.296 43.0785 12.832 43.6225 12.512C44.1772 12.192 44.7692 12.032 45.3985 12.032C46.0385 12.032 46.6305 12.192 47.1745 12.512C47.7185 12.832 48.1558 13.296 48.4865 13.904C48.8278 14.512 48.9985 15.2533 48.9985 16.128C48.9985 16.9813 48.8278 17.712 48.4865 18.32C48.1558 18.928 47.7185 19.392 47.1745 19.712C46.6305 20.032 46.0385 20.192 45.3985 20.192ZM45.3985 19.104C46.0705 19.104 46.6092 18.832 47.0145 18.288C47.4305 17.7333 47.6385 17.0133 47.6385 16.128C47.6385 15.232 47.4305 14.5067 47.0145 13.952C46.6092 13.3973 46.0705 13.12 45.3985 13.12C44.7372 13.12 44.1985 13.3973 43.7825 13.952C43.3665 14.5067 43.1585 15.232 43.1585 16.128C43.1585 17.0133 43.3665 17.7333 43.7825 18.288C44.1985 18.832 44.7372 19.104 45.3985 19.104ZM51.0464 20V12.224H52.1344L52.2464 13.344H52.2944C52.6677 12.9707 53.0624 12.6613 53.4784 12.416C53.8944 12.16 54.369 12.032 54.9024 12.032C55.7237 12.032 56.321 12.2933 56.6944 12.816C57.0784 13.328 57.2704 14.08 57.2704 15.072V20H55.9584V15.248C55.9584 14.5227 55.841 13.9947 55.6064 13.664C55.3717 13.3333 54.9984 13.168 54.4864 13.168C54.0917 13.168 53.7344 13.2693 53.4144 13.472C53.105 13.6747 52.753 13.9733 52.3584 14.368V20H51.0464ZM63.1275 20V9.504H64.5035L68.2955 16.096L69.4315 18.272H69.4955C69.4635 17.7387 69.4262 17.1893 69.3835 16.624C69.3515 16.048 69.3355 15.4827 69.3355 14.928V9.504H70.5995V20H69.2235L65.4155 13.392L64.2795 11.232H64.2155C64.2582 11.7547 64.2955 12.2933 64.3275 12.848C64.3702 13.4027 64.3915 13.9573 64.3915 14.512V20H63.1275ZM76.5109 20.192C75.8175 20.192 75.1882 20.032 74.6229 19.712C74.0575 19.3813 73.6095 18.912 73.2789 18.304C72.9482 17.696 72.7829 16.9707 72.7829 16.128C72.7829 15.2747 72.9482 14.544 73.2789 13.936C73.6202 13.328 74.0575 12.8587 74.5909 12.528C75.1242 12.1973 75.6842 12.032 76.2709 12.032C77.2629 12.032 78.0255 12.3627 78.5589 13.024C79.1029 13.6853 79.3749 14.5707 79.3749 15.68C79.3749 15.8187 79.3695 15.9573 79.3589 16.096C79.3589 16.224 79.3482 16.336 79.3269 16.432H74.0789C74.1322 17.2533 74.3882 17.9093 74.8469 18.4C75.3162 18.8907 75.9242 19.136 76.6709 19.136C77.0442 19.136 77.3855 19.0827 77.6949 18.976C78.0149 18.8587 78.3189 18.7093 78.6069 18.528L79.0709 19.392C78.7402 19.6053 78.3615 19.792 77.9349 19.952C77.5189 20.112 77.0442 20.192 76.5109 20.192ZM74.0629 15.488H78.2229C78.2229 14.6987 78.0522 14.1013 77.7109 13.696C77.3802 13.28 76.9109 13.072 76.3029 13.072C75.7589 13.072 75.2682 13.2853 74.8309 13.712C74.4042 14.128 74.1482 14.72 74.0629 15.488ZM83.5881 20.192C82.7561 20.192 82.1748 19.952 81.8441 19.472C81.5241 18.992 81.3641 18.368 81.3641 17.6V13.296H80.2121V12.304L81.4281 12.224L81.5881 10.048H82.6921V12.224H84.7881V13.296H82.6921V17.616C82.6921 18.096 82.7775 18.4693 82.9481 18.736C83.1295 18.992 83.4441 19.12 83.8921 19.12C84.0308 19.12 84.1801 19.0987 84.3401 19.056C84.5001 19.0027 84.6441 18.9547 84.7721 18.912L85.0281 19.904C84.8148 19.9787 84.5801 20.0427 84.3241 20.096C84.0788 20.16 83.8335 20.192 83.5881 20.192ZM90.4024 20.192C89.6877 20.192 89.0424 20.048 88.4664 19.76C87.901 19.472 87.453 18.9973 87.1224 18.336C86.7917 17.6747 86.6264 16.784 86.6264 15.664V9.504H87.9544V15.696C87.9544 16.5387 88.061 17.2053 88.2744 17.696C88.4984 18.176 88.7917 18.5173 89.1544 18.72C89.5277 18.9227 89.9437 19.024 90.4024 19.024C90.8717 19.024 91.293 18.9227 91.6664 18.72C92.0397 18.5173 92.333 18.176 92.5464 17.696C92.7704 17.2053 92.8824 16.5387 92.8824 15.696V9.504H94.1624V15.664C94.1624 16.784 93.997 17.6747 93.6664 18.336C93.3357 18.9973 92.8877 19.472 92.3224 19.76C91.757 20.048 91.117 20.192 90.4024 20.192ZM96.9869 20V9.504H99.9789C100.768 9.504 101.456 9.6 102.043 9.792C102.63 9.984 103.088 10.3093 103.419 10.768C103.75 11.216 103.915 11.824 103.915 12.592C103.915 13.6907 103.558 14.5067 102.843 15.04C102.128 15.5733 101.195 15.84 100.043 15.84H98.3149V20H96.9869ZM98.3149 14.752H99.8829C100.8 14.752 101.478 14.5813 101.915 14.24C102.363 13.888 102.587 13.3387 102.587 12.592C102.587 11.8347 102.352 11.312 101.883 11.024C101.424 10.7253 100.736 10.576 99.8189 10.576H98.3149V14.752ZM111.429 20V10.624H108.261V9.504H115.941V10.624H112.773V20H111.429ZM119.751 20L116.391 9.504H117.815L119.495 15.168C119.687 15.7867 119.852 16.368 119.991 16.912C120.14 17.4453 120.316 18.0213 120.519 18.64H120.583C120.775 18.0213 120.945 17.4453 121.095 16.912C121.244 16.368 121.409 15.7867 121.591 15.168L123.271 9.504H124.631L121.303 20H119.751Z" fill="white"/>
</svg>
